<svg width="172" height="100" viewBox="0 0 172 100" fill="none" xmlns="http://www.w3.org/2000/svg">
<mask id="path-1-inside-1_15_1542" fill="white">
<path d="M0 8C0 3.58172 3.58172 0 8 0H164C168.418 0 172 3.58172 172 8V92C172 96.4183 168.418 100 164 100H8C3.58173 100 0 96.4183 0 92V8Z"/>
</mask>
<path d="M0 8C0 3.58172 3.58172 0 8 0H164C168.418 0 172 3.58172 172 8V92C172 96.4183 168.418 100 164 100H8C3.58173 100 0 96.4183 0 92V8Z" fill="#2C2C2C"/>
<path d="M8 1H164V-1H8V1ZM171 8V92H173V8H171ZM164 99H8V101H164V99ZM1 92V8H-1V92H1ZM8 99C4.13401 99 1 95.866 1 92H-1C-1 96.9706 3.02944 101 8 101V99ZM171 92C171 95.866 167.866 99 164 99V101C168.971 101 173 96.9706 173 92H171ZM164 1C167.866 1 171 4.13401 171 8H173C173 3.02944 168.971 -1 164 -1V1ZM8 -1C3.02944 -1 -1 3.02944 -1 8H1C1 4.13401 4.13401 1 8 1V-1Z" fill="#2C2C2C" mask="url(#path-1-inside-1_15_1542)"/>
<path d="M68.4091 56V44.3636H72.4773C73.2879 44.3636 73.9564 44.5038 74.483 44.7841C75.0095 45.0606 75.4015 45.4337 75.6591 45.9034C75.9167 46.3693 76.0455 46.8864 76.0455 47.4545C76.0455 47.9545 75.9564 48.3674 75.7784 48.6932C75.6042 49.0189 75.3731 49.2765 75.0852 49.4659C74.8011 49.6553 74.4924 49.7955 74.1591 49.8864V50C74.5152 50.0227 74.8731 50.1477 75.233 50.375C75.5928 50.6023 75.8939 50.928 76.1364 51.3523C76.3788 51.7765 76.5 52.2955 76.5 52.9091C76.5 53.4924 76.3674 54.017 76.1023 54.483C75.8371 54.9489 75.4186 55.3182 74.8466 55.5909C74.2746 55.8636 73.5303 56 72.6136 56H68.4091ZM69.8182 54.75H72.6136C73.5341 54.75 74.1875 54.572 74.5739 54.2159C74.964 53.8561 75.1591 53.4205 75.1591 52.9091C75.1591 52.5152 75.0587 52.1515 74.858 51.8182C74.6572 51.4811 74.3712 51.2121 74 51.0114C73.6288 50.8068 73.1894 50.7045 72.6818 50.7045H69.8182V54.75ZM69.8182 49.4773H72.4318C72.8561 49.4773 73.2386 49.3939 73.5795 49.2273C73.9242 49.0606 74.197 48.8258 74.3977 48.5227C74.6023 48.2197 74.7045 47.8636 74.7045 47.4545C74.7045 46.9432 74.5265 46.5095 74.1705 46.1534C73.8144 45.7936 73.25 45.6136 72.4773 45.6136H69.8182V49.4773ZM81.2017 56.2045C80.6487 56.2045 80.1468 56.1004 79.696 55.892C79.2453 55.6799 78.8873 55.375 78.6222 54.9773C78.357 54.5758 78.2244 54.0909 78.2244 53.5227C78.2244 53.0227 78.3229 52.6174 78.5199 52.3068C78.7169 51.9924 78.9801 51.7462 79.3097 51.5682C79.6392 51.3902 80.0028 51.2576 80.4006 51.1705C80.8021 51.0795 81.2055 51.0076 81.6108 50.9545C82.1411 50.8864 82.571 50.8352 82.9006 50.8011C83.2339 50.7633 83.4763 50.7008 83.6278 50.6136C83.7831 50.5265 83.8608 50.375 83.8608 50.1591V50.1136C83.8608 49.553 83.7074 49.1174 83.4006 48.8068C83.0975 48.4962 82.6373 48.3409 82.0199 48.3409C81.3797 48.3409 80.8778 48.4811 80.5142 48.7614C80.1506 49.0417 79.8949 49.3409 79.7472 49.6591L78.4744 49.2045C78.7017 48.6742 79.0047 48.2614 79.3835 47.9659C79.7661 47.6667 80.1828 47.4583 80.6335 47.3409C81.0881 47.2197 81.535 47.1591 81.9744 47.1591C82.2547 47.1591 82.5767 47.1932 82.9403 47.2614C83.3078 47.3258 83.6619 47.4602 84.0028 47.6648C84.3475 47.8693 84.6335 48.178 84.8608 48.5909C85.0881 49.0038 85.2017 49.5568 85.2017 50.25V56H83.8608V54.8182H83.7926C83.7017 55.0076 83.5502 55.2102 83.3381 55.4261C83.1259 55.642 82.8438 55.8258 82.4915 55.9773C82.1392 56.1288 81.7093 56.2045 81.2017 56.2045ZM81.4062 55C81.9366 55 82.3835 54.8958 82.7472 54.6875C83.1146 54.4792 83.3911 54.2102 83.5767 53.8807C83.7661 53.5511 83.8608 53.2045 83.8608 52.8409V51.6136C83.804 51.6818 83.679 51.7443 83.4858 51.8011C83.2964 51.8542 83.0767 51.9015 82.8267 51.9432C82.5805 51.9811 82.34 52.0152 82.1051 52.0455C81.8741 52.072 81.6866 52.0947 81.5426 52.1136C81.1941 52.1591 80.8684 52.233 80.5653 52.3352C80.2661 52.4337 80.0237 52.5833 79.8381 52.7841C79.6563 52.9811 79.5653 53.25 79.5653 53.5909C79.5653 54.0568 79.7377 54.4091 80.0824 54.6477C80.4309 54.8826 80.8722 55 81.4062 55ZM91.1946 56.1818C90.3764 56.1818 89.6719 55.9886 89.081 55.6023C88.4901 55.2159 88.0355 54.6837 87.7173 54.0057C87.3991 53.3277 87.2401 52.553 87.2401 51.6818C87.2401 50.7955 87.4029 50.0133 87.7287 49.3352C88.0582 48.6534 88.5166 48.1212 89.1037 47.7386C89.6946 47.3523 90.384 47.1591 91.1719 47.1591C91.7855 47.1591 92.3385 47.2727 92.831 47.5C93.3234 47.7273 93.7268 48.0455 94.0412 48.4545C94.3556 48.8636 94.5507 49.3409 94.6264 49.8864H93.2855C93.1832 49.4886 92.956 49.1364 92.6037 48.8295C92.2552 48.5189 91.7855 48.3636 91.1946 48.3636C90.6719 48.3636 90.2135 48.5 89.8196 48.7727C89.4295 49.0417 89.1245 49.4223 88.9048 49.9148C88.6889 50.4034 88.581 50.9773 88.581 51.6364C88.581 52.3106 88.687 52.8977 88.8991 53.3977C89.1151 53.8977 89.4181 54.286 89.8082 54.5625C90.2022 54.839 90.6643 54.9773 91.1946 54.9773C91.5431 54.9773 91.8594 54.9167 92.1435 54.7955C92.4276 54.6742 92.6681 54.5 92.8651 54.2727C93.062 54.0455 93.2022 53.7727 93.2855 53.4545H94.6264C94.5507 53.9697 94.3632 54.4337 94.0639 54.8466C93.7685 55.2557 93.3764 55.5814 92.8878 55.8239C92.4029 56.0625 91.8385 56.1818 91.1946 56.1818ZM97.8366 52.8182L97.8139 51.1591H98.0866L101.905 47.2727H103.564L99.4957 51.3864H99.3821L97.8366 52.8182ZM96.5866 56V44.3636H97.9276V56H96.5866ZM102.132 56L98.723 51.6818L99.6776 50.75L103.837 56H102.132Z" fill="#F5F5F5"/>
</svg>
