<svg width="700" height="44" viewBox="0 0 700 44" fill="none" xmlns="http://www.w3.org/2000/svg">
<path d="M0 22C0 17.5817 3.58172 14 8 14H340C341.105 14 342 14.8954 342 16V28C342 29.1046 341.105 30 340 30H8.00001C3.58173 30 0 26.4183 0 22Z" fill="#E8DEF8"/>
<circle cx="6" cy="22.0002" r="2" fill="#4A4459"/>
<rect x="348" width="4" height="44" rx="2" fill="#65558F"/>
<path d="M358 16C358 14.8954 358.895 14 360 14H692C696.418 14 700 17.5817 700 22C700 26.4183 696.418 30 692 30H360C358.895 30 358 29.1046 358 28V16Z" fill="#E8DEF8"/>
<circle cx="694" cy="22.0002" r="2" fill="#4A4459"/>
</svg>
