<svg width="244" height="55" viewBox="0 0 244 55" fill="none" xmlns="http://www.w3.org/2000/svg">
<rect x="0.5" y="0.5" width="243" height="54" rx="7.5" stroke="#CAC4D0"/>
<path d="M83.4785 23.873L80.5049 32.5H78.707L82.4531 22.5469H83.6016L83.4785 23.873ZM85.9668 32.5L82.9863 23.873L82.8564 22.5469H84.0117L87.7715 32.5H85.9668ZM85.8232 28.8086V30.1689H80.4092V28.8086H85.8232ZM91.8773 32.5H89.7514L89.765 31.1396H91.8773C92.4926 31.1396 93.0076 31.0052 93.4223 30.7363C93.8415 30.4674 94.156 30.0824 94.3656 29.5811C94.5798 29.0798 94.6869 28.4827 94.6869 27.79V27.25C94.6869 26.7122 94.6254 26.236 94.5023 25.8213C94.3839 25.4066 94.2061 25.0579 93.9691 24.7754C93.7367 24.4928 93.4496 24.2786 93.1078 24.1328C92.7706 23.987 92.3809 23.9141 91.9389 23.9141H89.7104V22.5469H91.9389C92.5997 22.5469 93.2035 22.6585 93.7504 22.8818C94.2973 23.1006 94.7689 23.4173 95.1654 23.832C95.5665 24.2467 95.8741 24.7435 96.0883 25.3223C96.3025 25.901 96.4096 26.5482 96.4096 27.2637V27.79C96.4096 28.5055 96.3025 29.1527 96.0883 29.7314C95.8741 30.3102 95.5665 30.807 95.1654 31.2217C94.7644 31.6318 94.2859 31.9486 93.7299 32.1719C93.1785 32.3906 92.5609 32.5 91.8773 32.5ZM90.7016 22.5469V32.5H88.9857V22.5469H90.7016ZM101.124 32.5H98.9979L99.0115 31.1396H101.124C101.739 31.1396 102.254 31.0052 102.669 30.7363C103.088 30.4674 103.402 30.0824 103.612 29.5811C103.826 29.0798 103.933 28.4827 103.933 27.79V27.25C103.933 26.7122 103.872 26.236 103.749 25.8213C103.63 25.4066 103.453 25.0579 103.216 24.7754C102.983 24.4928 102.696 24.2786 102.354 24.1328C102.017 23.987 101.627 23.9141 101.185 23.9141H98.9568V22.5469H101.185C101.846 22.5469 102.45 22.6585 102.997 22.8818C103.544 23.1006 104.015 23.4173 104.412 23.832C104.813 24.2467 105.121 24.7435 105.335 25.3223C105.549 25.901 105.656 26.5482 105.656 27.2637V27.79C105.656 28.5055 105.549 29.1527 105.335 29.7314C105.121 30.3102 104.813 30.807 104.412 31.2217C104.011 31.6318 103.532 31.9486 102.976 32.1719C102.425 32.3906 101.807 32.5 101.124 32.5ZM99.948 22.5469V32.5H98.2322V22.5469H99.948ZM114.941 23.873L111.967 32.5H110.17L113.916 22.5469H115.064L114.941 23.873ZM117.429 32.5L114.449 23.873L114.319 22.5469H115.474L119.234 32.5H117.429ZM117.286 28.8086V30.1689H111.872V28.8086H117.286ZM120.448 22.5469H123.969C124.725 22.5469 125.37 22.6608 125.903 22.8887C126.437 23.1165 126.844 23.4538 127.127 23.9004C127.414 24.3424 127.558 24.8893 127.558 25.541C127.558 26.0378 127.466 26.4753 127.284 26.8535C127.102 27.2318 126.844 27.5508 126.512 27.8105C126.179 28.0658 125.783 28.264 125.322 28.4053L124.803 28.6582H121.638L121.624 27.2979H123.996C124.406 27.2979 124.748 27.2249 125.021 27.0791C125.295 26.9333 125.5 26.735 125.637 26.4844C125.778 26.2292 125.849 25.9421 125.849 25.623C125.849 25.2767 125.78 24.9759 125.644 24.7207C125.511 24.4609 125.306 24.2627 125.028 24.126C124.75 23.9847 124.397 23.9141 123.969 23.9141H122.164V32.5H120.448V22.5469ZM126.129 32.5L123.791 28.0293L125.589 28.0225L127.961 32.4111V32.5H126.129ZM132.996 22.5469V32.5H131.294V22.5469H132.996ZM136.121 22.5469V23.9141H128.198V22.5469H136.121ZM139.365 22.5469V32.5H137.649V22.5469H139.365ZM147.477 29.2598H149.186C149.131 29.9115 148.949 30.4925 148.639 31.0029C148.329 31.5088 147.894 31.9076 147.333 32.1992C146.773 32.4909 146.091 32.6367 145.289 32.6367C144.674 32.6367 144.12 32.5273 143.628 32.3086C143.136 32.0853 142.714 31.7708 142.363 31.3652C142.013 30.9551 141.744 30.4606 141.557 29.8818C141.375 29.3031 141.283 28.6559 141.283 27.9404V27.1133C141.283 26.3978 141.377 25.7507 141.564 25.1719C141.755 24.5931 142.029 24.0986 142.384 23.6885C142.739 23.2738 143.166 22.957 143.662 22.7383C144.164 22.5195 144.726 22.4102 145.351 22.4102C146.144 22.4102 146.814 22.556 147.361 22.8477C147.907 23.1393 148.331 23.5426 148.632 24.0576C148.937 24.5726 149.124 25.1628 149.193 25.8281H147.484C147.438 25.3997 147.338 25.0329 147.183 24.7275C147.032 24.4222 146.809 24.1898 146.513 24.0303C146.217 23.8662 145.829 23.7842 145.351 23.7842C144.959 23.7842 144.617 23.8571 144.325 24.0029C144.034 24.1488 143.79 24.363 143.594 24.6455C143.398 24.9281 143.25 25.2767 143.15 25.6914C143.054 26.1016 143.006 26.571 143.006 27.0996V27.9404C143.006 28.4417 143.049 28.8975 143.136 29.3076C143.227 29.7132 143.364 30.0618 143.546 30.3535C143.733 30.6452 143.97 30.8708 144.257 31.0303C144.544 31.1898 144.888 31.2695 145.289 31.2695C145.777 31.2695 146.171 31.1921 146.472 31.0371C146.777 30.8822 147.007 30.6566 147.162 30.3604C147.322 30.0596 147.427 29.6927 147.477 29.2598ZM157.079 31.1396V32.5H152.082V31.1396H157.079ZM152.56 22.5469V32.5H150.844V22.5469H152.56ZM165.02 31.1396V32.5H159.735V31.1396H165.02ZM160.221 22.5469V32.5H158.505V22.5469H160.221ZM164.329 26.7031V28.043H159.735V26.7031H164.329ZM164.985 22.5469V23.9141H159.735V22.5469H164.985Z" fill="#49454F"/>
</svg>
