<svg width="1440" height="91" viewBox="0 0 1440 91" fill="none" xmlns="http://www.w3.org/2000/svg">
<g filter="url(#filter0_d_33_214)">
<mask id="path-1-inside-1_33_214" fill="white">
<path d="M0 26C0 11.6406 11.6406 0 26 0H1414C1428.36 0 1440 11.6406 1440 26V83H0V26Z"/>
</mask>
<path d="M0 26C0 11.6406 11.6406 0 26 0H1414C1428.36 0 1440 11.6406 1440 26V83H0V26Z" fill="url(#paint0_linear_33_214)"/>
<path d="M0 0H1440H0ZM1440 84H0V82H1440V84ZM0 83V0V83ZM1440 0V83V0Z" fill="#D9D9D9" mask="url(#path-1-inside-1_33_214)"/>
</g>
<g filter="url(#filter1_dd_33_214)">
<path d="M527.453 57.5469V60H516.078V57.5469H527.453ZM516.672 37.25V60H513.656V37.25H516.672ZM547.391 47.9062V49.3438C547.391 51.0521 547.177 52.5833 546.75 53.9375C546.323 55.2917 545.708 56.4427 544.906 57.3906C544.104 58.3385 543.141 59.0625 542.016 59.5625C540.901 60.0625 539.651 60.3125 538.266 60.3125C536.922 60.3125 535.688 60.0625 534.562 59.5625C533.448 59.0625 532.479 58.3385 531.656 57.3906C530.844 56.4427 530.214 55.2917 529.766 53.9375C529.318 52.5833 529.094 51.0521 529.094 49.3438V47.9062C529.094 46.1979 529.312 44.6719 529.75 43.3281C530.198 41.974 530.828 40.8229 531.641 39.875C532.453 38.9167 533.417 38.1875 534.531 37.6875C535.656 37.1875 536.891 36.9375 538.234 36.9375C539.62 36.9375 540.87 37.1875 541.984 37.6875C543.109 38.1875 544.073 38.9167 544.875 39.875C545.688 40.8229 546.307 41.974 546.734 43.3281C547.172 44.6719 547.391 46.1979 547.391 47.9062ZM544.406 49.3438V47.875C544.406 46.5208 544.266 45.3229 543.984 44.2812C543.714 43.2396 543.312 42.3646 542.781 41.6562C542.25 40.9479 541.599 40.4115 540.828 40.0469C540.068 39.6823 539.203 39.5 538.234 39.5C537.297 39.5 536.448 39.6823 535.688 40.0469C534.938 40.4115 534.292 40.9479 533.75 41.6562C533.219 42.3646 532.807 43.2396 532.516 44.2812C532.224 45.3229 532.078 46.5208 532.078 47.875V49.3438C532.078 50.7083 532.224 51.9167 532.516 52.9688C532.807 54.0104 533.224 54.8906 533.766 55.6094C534.318 56.3177 534.969 56.8542 535.719 57.2188C536.479 57.5833 537.328 57.7656 538.266 57.7656C539.245 57.7656 540.115 57.5833 540.875 57.2188C541.635 56.8542 542.276 56.3177 542.797 55.6094C543.328 54.8906 543.729 54.0104 544 52.9688C544.271 51.9167 544.406 50.7083 544.406 49.3438ZM565.641 52.7656H568.641C568.484 54.2031 568.073 55.4896 567.406 56.625C566.74 57.7604 565.797 58.6615 564.578 59.3281C563.359 59.9844 561.839 60.3125 560.016 60.3125C558.682 60.3125 557.469 60.0625 556.375 59.5625C555.292 59.0625 554.359 58.3542 553.578 57.4375C552.797 56.5104 552.193 55.401 551.766 54.1094C551.349 52.8073 551.141 51.3594 551.141 49.7656V47.5C551.141 45.9062 551.349 44.4635 551.766 43.1719C552.193 41.8698 552.802 40.7552 553.594 39.8281C554.396 38.901 555.359 38.1875 556.484 37.6875C557.609 37.1875 558.875 36.9375 560.281 36.9375C562 36.9375 563.453 37.2604 564.641 37.9062C565.828 38.5521 566.75 39.4479 567.406 40.5938C568.073 41.7292 568.484 43.0469 568.641 44.5469H565.641C565.495 43.4844 565.224 42.5729 564.828 41.8125C564.432 41.0417 563.87 40.4479 563.141 40.0312C562.411 39.6146 561.458 39.4062 560.281 39.4062C559.271 39.4062 558.38 39.599 557.609 39.9844C556.849 40.3698 556.208 40.9167 555.688 41.625C555.177 42.3333 554.792 43.1823 554.531 44.1719C554.271 45.1615 554.141 46.2604 554.141 47.4688V49.7656C554.141 50.8802 554.255 51.9271 554.484 52.9062C554.724 53.8854 555.083 54.7448 555.562 55.4844C556.042 56.224 556.651 56.8073 557.391 57.2344C558.13 57.651 559.005 57.8594 560.016 57.8594C561.297 57.8594 562.318 57.6562 563.078 57.25C563.839 56.8438 564.411 56.2604 564.797 55.5C565.193 54.7396 565.474 53.8281 565.641 52.7656ZM581.172 39.2656L573.641 60H570.562L579.234 37.25H581.219L581.172 39.2656ZM587.484 60L579.938 39.2656L579.891 37.25H581.875L590.578 60H587.484ZM587.094 51.5781V54.0469H574.312V51.5781H587.094ZM607.422 57.5469V60H596.047V57.5469H607.422ZM596.641 37.25V60H593.625V37.25H596.641ZM636.312 37.25V60H633.281L621.828 42.4531V60H618.812V37.25H621.828L633.328 54.8438V37.25H636.312ZM656.109 57.5469V60H644.062V57.5469H656.109ZM644.672 37.25V60H641.656V37.25H644.672ZM654.516 47.0312V49.4844H644.062V47.0312H654.516ZM655.953 37.25V39.7188H644.062V37.25H655.953ZM665.828 53.125L670.344 37.25H672.531L671.266 43.4219L666.406 60H664.234L665.828 53.125ZM661.156 37.25L664.75 52.8125L665.828 60H663.672L658.156 37.25H661.156ZM678.375 52.7969L681.891 37.25H684.906L679.406 60H677.25L678.375 52.7969ZM672.859 37.25L677.25 53.125L678.844 60H676.672L671.984 43.4219L670.703 37.25H672.859ZM700.375 54.25C700.375 53.7188 700.292 53.25 700.125 52.8438C699.969 52.4271 699.688 52.0521 699.281 51.7188C698.885 51.3854 698.333 51.0677 697.625 50.7656C696.927 50.4635 696.042 50.1562 694.969 49.8438C693.844 49.5104 692.828 49.1406 691.922 48.7344C691.016 48.3177 690.24 47.8438 689.594 47.3125C688.948 46.7812 688.453 46.1719 688.109 45.4844C687.766 44.7969 687.594 44.0104 687.594 43.125C687.594 42.2396 687.776 41.4219 688.141 40.6719C688.505 39.9219 689.026 39.2708 689.703 38.7188C690.391 38.1562 691.208 37.7188 692.156 37.4062C693.104 37.0938 694.161 36.9375 695.328 36.9375C697.036 36.9375 698.484 37.2656 699.672 37.9219C700.87 38.5677 701.781 39.4167 702.406 40.4688C703.031 41.5104 703.344 42.625 703.344 43.8125H700.344C700.344 42.9583 700.161 42.2031 699.797 41.5469C699.432 40.8802 698.88 40.3594 698.141 39.9844C697.401 39.599 696.464 39.4062 695.328 39.4062C694.255 39.4062 693.37 39.5677 692.672 39.8906C691.974 40.2135 691.453 40.651 691.109 41.2031C690.776 41.7552 690.609 42.3854 690.609 43.0938C690.609 43.5729 690.708 44.0104 690.906 44.4062C691.115 44.7917 691.432 45.151 691.859 45.4844C692.297 45.8177 692.849 46.125 693.516 46.4062C694.193 46.6875 695 46.9583 695.938 47.2188C697.229 47.5833 698.344 47.9896 699.281 48.4375C700.219 48.8854 700.99 49.3906 701.594 49.9531C702.208 50.5052 702.661 51.1354 702.953 51.8438C703.255 52.5417 703.406 53.3333 703.406 54.2188C703.406 55.1458 703.219 55.9844 702.844 56.7344C702.469 57.4844 701.932 58.125 701.234 58.6562C700.536 59.1875 699.698 59.599 698.719 59.8906C697.75 60.1719 696.667 60.3125 695.469 60.3125C694.417 60.3125 693.38 60.1667 692.359 59.875C691.349 59.5833 690.427 59.1458 689.594 58.5625C688.771 57.9792 688.109 57.2604 687.609 56.4062C687.12 55.5417 686.875 54.5417 686.875 53.4062H689.875C689.875 54.1875 690.026 54.8594 690.328 55.4219C690.63 55.974 691.042 56.4323 691.562 56.7969C692.094 57.1615 692.693 57.4323 693.359 57.6094C694.036 57.776 694.74 57.8594 695.469 57.8594C696.521 57.8594 697.411 57.7135 698.141 57.4219C698.87 57.1302 699.422 56.7135 699.797 56.1719C700.182 55.6302 700.375 54.9896 700.375 54.25ZM723.609 39.2656L716.078 60H713L721.672 37.25H723.656L723.609 39.2656ZM729.922 60L722.375 39.2656L722.328 37.25H724.312L733.016 60H729.922ZM729.531 51.5781V54.0469H716.75V51.5781H729.531ZM736.062 37.25H743.594C745.302 37.25 746.745 37.5104 747.922 38.0312C749.109 38.5521 750.01 39.3229 750.625 40.3438C751.25 41.3542 751.562 42.599 751.562 44.0781C751.562 45.1198 751.349 46.0729 750.922 46.9375C750.505 47.7917 749.901 48.5208 749.109 49.125C748.328 49.7188 747.391 50.1615 746.297 50.4531L745.453 50.7812H738.375L738.344 48.3281H743.688C744.771 48.3281 745.672 48.1406 746.391 47.7656C747.109 47.3802 747.651 46.8646 748.016 46.2188C748.38 45.5729 748.562 44.8594 748.562 44.0781C748.562 43.2031 748.391 42.4375 748.047 41.7812C747.703 41.125 747.161 40.6198 746.422 40.2656C745.693 39.901 744.75 39.7188 743.594 39.7188H739.078V60H736.062V37.25ZM749.359 60L743.828 49.6875L746.969 49.6719L752.578 59.8125V60H749.359ZM762.938 37.25V60H759.969V37.25H762.938ZM770.25 37.25V39.7188H752.672V37.25H770.25ZM776.859 37.25V60H773.844V37.25H776.859ZM796.078 52.7656H799.078C798.922 54.2031 798.51 55.4896 797.844 56.625C797.177 57.7604 796.234 58.6615 795.016 59.3281C793.797 59.9844 792.276 60.3125 790.453 60.3125C789.12 60.3125 787.906 60.0625 786.812 59.5625C785.729 59.0625 784.797 58.3542 784.016 57.4375C783.234 56.5104 782.63 55.401 782.203 54.1094C781.786 52.8073 781.578 51.3594 781.578 49.7656V47.5C781.578 45.9062 781.786 44.4635 782.203 43.1719C782.63 41.8698 783.24 40.7552 784.031 39.8281C784.833 38.901 785.797 38.1875 786.922 37.6875C788.047 37.1875 789.312 36.9375 790.719 36.9375C792.438 36.9375 793.891 37.2604 795.078 37.9062C796.266 38.5521 797.188 39.4479 797.844 40.5938C798.51 41.7292 798.922 43.0469 799.078 44.5469H796.078C795.932 43.4844 795.661 42.5729 795.266 41.8125C794.87 41.0417 794.307 40.4479 793.578 40.0312C792.849 39.6146 791.896 39.4062 790.719 39.4062C789.708 39.4062 788.818 39.599 788.047 39.9844C787.286 40.3698 786.646 40.9167 786.125 41.625C785.615 42.3333 785.229 43.1823 784.969 44.1719C784.708 45.1615 784.578 46.2604 784.578 47.4688V49.7656C784.578 50.8802 784.693 51.9271 784.922 52.9062C785.161 53.8854 785.521 54.7448 786 55.4844C786.479 56.224 787.089 56.8073 787.828 57.2344C788.568 57.651 789.443 57.8594 790.453 57.8594C791.734 57.8594 792.755 57.6562 793.516 57.25C794.276 56.8438 794.849 56.2604 795.234 55.5C795.63 54.7396 795.911 53.8281 796.078 52.7656ZM816.984 57.5469V60H805.609V57.5469H816.984ZM806.203 37.25V60H803.188V37.25H806.203ZM834.891 57.5469V60H822.844V57.5469H834.891ZM823.453 37.25V60H820.438V37.25H823.453ZM833.297 47.0312V49.4844H822.844V47.0312H833.297ZM834.734 37.25V39.7188H822.844V37.25H834.734Z" fill="#151318"/>
</g>
<defs>
<filter id="filter0_d_33_214" x="-4" y="0" width="1448" height="91" filterUnits="userSpaceOnUse" color-interpolation-filters="sRGB">
<feFlood flood-opacity="0" result="BackgroundImageFix"/>
<feColorMatrix in="SourceAlpha" type="matrix" values="0 0 0 0 0 0 0 0 0 0 0 0 0 0 0 0 0 0 127 0" result="hardAlpha"/>
<feOffset dy="4"/>
<feGaussianBlur stdDeviation="2"/>
<feComposite in2="hardAlpha" operator="out"/>
<feColorMatrix type="matrix" values="0 0 0 0 0 0 0 0 0 0 0 0 0 0 0 0 0 0 0.25 0"/>
<feBlend mode="normal" in2="BackgroundImageFix" result="effect1_dropShadow_33_214"/>
<feBlend mode="normal" in="SourceGraphic" in2="effect1_dropShadow_33_214" result="shape"/>
</filter>
<filter id="filter1_dd_33_214" x="502.656" y="29.9375" width="343.234" height="45.375" filterUnits="userSpaceOnUse" color-interpolation-filters="sRGB">
<feFlood flood-opacity="0" result="BackgroundImageFix"/>
<feColorMatrix in="SourceAlpha" type="matrix" values="0 0 0 0 0 0 0 0 0 0 0 0 0 0 0 0 0 0 127 0" result="hardAlpha"/>
<feOffset dy="1"/>
<feGaussianBlur stdDeviation="1.5"/>
<feColorMatrix type="matrix" values="0 0 0 0 0 0 0 0 0 0 0 0 0 0 0 0 0 0 0.3 0"/>
<feBlend mode="normal" in2="BackgroundImageFix" result="effect1_dropShadow_33_214"/>
<feColorMatrix in="SourceAlpha" type="matrix" values="0 0 0 0 0 0 0 0 0 0 0 0 0 0 0 0 0 0 127 0" result="hardAlpha"/>
<feMorphology radius="3" operator="dilate" in="SourceAlpha" result="effect2_dropShadow_33_214"/>
<feOffset dy="4"/>
<feGaussianBlur stdDeviation="4"/>
<feColorMatrix type="matrix" values="0 0 0 0 0 0 0 0 0 0 0 0 0 0 0 0 0 0 0.15 0"/>
<feBlend mode="normal" in2="effect1_dropShadow_33_214" result="effect2_dropShadow_33_214"/>
<feBlend mode="normal" in="SourceGraphic" in2="effect2_dropShadow_33_214" result="shape"/>
</filter>
<linearGradient id="paint0_linear_33_214" x1="0" y1="41.5" x2="1440" y2="41.5" gradientUnits="userSpaceOnUse">
<stop stop-color="white"/>
<stop offset="1" stop-color="#999999"/>
</linearGradient>
</defs>
</svg>
