<svg width="1448" height="91" viewBox="0 0 1448 91" fill="none" xmlns="http://www.w3.org/2000/svg">
<g filter="url(#filter0_d_18_302)">
<mask id="path-1-inside-1_18_302" fill="white">
<path d="M4 26C4 11.6406 15.6406 0 30 0H1418C1432.36 0 1444 11.6406 1444 26V83H4V26Z"/>
</mask>
<path d="M4 26C4 11.6406 15.6406 0 30 0H1418C1432.36 0 1444 11.6406 1444 26V83H4V26Z" fill="url(#paint0_linear_18_302)"/>
<path d="M4 0H1444H4ZM1444 84H4V82H1444V84ZM4 83V0V83ZM1444 0V83V0Z" fill="#D9D9D9" mask="url(#path-1-inside-1_18_302)"/>
</g>
<defs>
<filter id="filter0_d_18_302" x="0" y="0" width="1448" height="91" filterUnits="userSpaceOnUse" color-interpolation-filters="sRGB">
<feFlood flood-opacity="0" result="BackgroundImageFix"/>
<feColorMatrix in="SourceAlpha" type="matrix" values="0 0 0 0 0 0 0 0 0 0 0 0 0 0 0 0 0 0 127 0" result="hardAlpha"/>
<feOffset dy="4"/>
<feGaussianBlur stdDeviation="2"/>
<feComposite in2="hardAlpha" operator="out"/>
<feColorMatrix type="matrix" values="0 0 0 0 0 0 0 0 0 0 0 0 0 0 0 0 0 0 0.25 0"/>
<feBlend mode="normal" in2="BackgroundImageFix" result="effect1_dropShadow_18_302"/>
<feBlend mode="normal" in="SourceGraphic" in2="effect1_dropShadow_18_302" result="shape"/>
</filter>
<linearGradient id="paint0_linear_18_302" x1="4" y1="41.5" x2="1444" y2="41.5" gradientUnits="userSpaceOnUse">
<stop stop-color="white"/>
<stop offset="1" stop-color="#999999"/>
</linearGradient>
</defs>
</svg>
