<svg width="36" height="47" viewBox="0 0 36 47" fill="none" xmlns="http://www.w3.org/2000/svg">
<path d="M18 43.0833C17.65 43.0833 17.35 42.9528 17.1 42.6917C16.85 42.4306 16.6625 42.0878 16.5375 41.6635C16.0625 39.8358 15.4625 38.1222 14.7375 36.5229C14.0375 34.9236 13.05 33.0469 11.775 30.8927C10.5 28.7385 9.4625 26.6823 8.6625 24.724C7.8875 22.7656 7.5 20.3993 7.5 17.625C7.5 13.8062 8.5125 10.575 10.5375 7.93125C12.5875 5.25486 15.075 3.91667 18 3.91667C20.925 3.91667 23.4 5.25486 25.425 7.93125C27.475 10.575 28.5 13.8062 28.5 17.625C28.5 20.5951 28.0625 23.0757 27.1875 25.0667C26.3375 27.025 25.35 28.967 24.225 30.8927C22.875 33.2427 21.85 35.201 21.15 36.7677C20.475 38.3017 19.9125 39.9337 19.4625 41.6635C19.3375 42.1205 19.1375 42.4795 18.8625 42.7406C18.6125 42.9691 18.325 43.0833 18 43.0833ZM18 22.5208C19.05 22.5208 19.9375 22.0476 20.6625 21.101C21.3875 20.1545 21.75 18.9958 21.75 17.625C21.75 16.2542 21.3875 15.0955 20.6625 14.149C19.9375 13.2024 19.05 12.7292 18 12.7292C16.95 12.7292 16.0625 13.2024 15.3375 14.149C14.6125 15.0955 14.25 16.2542 14.25 17.625C14.25 18.9958 14.6125 20.1545 15.3375 21.101C16.0625 22.0476 16.95 22.5208 18 22.5208Z" fill="#1D1B20"/>
</svg>
