<svg width="36" height="43" viewBox="0 0 36 43" fill="none" xmlns="http://www.w3.org/2000/svg">
<path d="M6 35.8333C5.175 35.8333 4.4625 35.4899 3.8625 34.8031C3.2875 34.0864 3 33.2354 3 32.25V10.75C3 9.76457 3.2875 8.92846 3.8625 8.24166C4.4625 7.52499 5.175 7.16666 6 7.16666H30C30.825 7.16666 31.525 7.52499 32.1 8.24166C32.7 8.92846 33 9.76457 33 10.75V32.25C33 33.2354 32.7 34.0864 32.1 34.8031C31.525 35.4899 30.825 35.8333 30 35.8333H6ZM18 23.2917L30 14.3333V10.75L18 19.7083L6 10.75V14.3333L18 23.2917Z" fill="#1D1B20"/>
</svg>
