<svg width="46" height="49" viewBox="0 0 46 49" fill="none" xmlns="http://www.w3.org/2000/svg">
<path d="M7.66669 38.7917V34.7083H11.5V20.4167C11.5 17.5924 12.2986 15.0913 13.8959 12.9135C15.4931 10.7017 17.5695 9.25556 20.125 8.575V7.14584C20.125 6.29514 20.3966 5.58056 20.9396 5.00208C21.5146 4.38959 22.2014 4.08334 23 4.08334C23.7986 4.08334 24.4695 4.38959 25.0125 5.00208C25.5875 5.58056 25.875 6.29514 25.875 7.14584V8.575C28.4306 9.25556 30.507 10.7017 32.1042 12.9135C33.7014 15.0913 34.5 17.5924 34.5 20.4167V34.7083H38.3334V38.7917H7.66669ZM23 44.9167C21.9459 44.9167 21.0354 44.5253 20.2688 43.7427C19.534 42.926 19.1667 41.9562 19.1667 40.8333H26.8334C26.8334 41.9562 26.45 42.926 25.6834 43.7427C24.9486 44.5253 24.0542 44.9167 23 44.9167ZM15.3334 34.7083H30.6667V20.4167C30.6667 18.1708 29.916 16.2483 28.4146 14.649C26.9132 13.0497 25.1084 12.25 23 12.25C20.8917 12.25 19.0868 13.0497 17.5854 14.649C16.084 16.2483 15.3334 18.1708 15.3334 20.4167V34.7083Z" fill="#1D1B20"/>
</svg>
