<svg width="46" height="43" viewBox="0 0 46 43" fill="none" xmlns="http://www.w3.org/2000/svg">
<path d="M23 21.5C20.8917 21.5 19.0868 20.7983 17.5854 19.3948C16.084 17.9913 15.3334 16.3042 15.3334 14.3333C15.3334 12.3625 16.084 10.6753 17.5854 9.27187C19.0868 7.8684 20.8917 7.16666 23 7.16666C25.1084 7.16666 26.9132 7.8684 28.4146 9.27187C29.916 10.6753 30.6667 12.3625 30.6667 14.3333C30.6667 16.3042 29.916 17.9913 28.4146 19.3948C26.9132 20.7983 25.1084 21.5 23 21.5ZM7.66669 35.8333V30.8167C7.66669 29.8014 7.9462 28.8682 8.50523 28.0172C9.06426 27.1661 9.80696 26.5167 10.7334 26.0687C12.7139 25.1431 14.7264 24.4488 16.7709 23.9859C18.8153 23.5231 20.8917 23.2917 23 23.2917C25.1084 23.2917 27.1847 23.5231 29.2292 23.9859C31.2736 24.4488 33.2861 25.1431 35.2667 26.0687C36.1931 26.5167 36.9358 27.1661 37.4948 28.0172C38.0538 28.8682 38.3334 29.8014 38.3334 30.8167V35.8333H7.66669ZM11.5 32.25H34.5V30.8167C34.5 30.4882 34.4122 30.1896 34.2365 29.9208C34.0608 29.6521 33.8292 29.4431 33.5417 29.2937C31.8167 28.4875 30.0757 27.8828 28.3188 27.4797C26.5618 27.0766 24.7889 26.875 23 26.875C21.2111 26.875 19.4382 27.0766 17.6813 27.4797C15.9243 27.8828 14.1834 28.4875 12.4584 29.2937C12.1709 29.4431 11.9393 29.6521 11.7636 29.9208C11.5879 30.1896 11.5 30.4882 11.5 30.8167V32.25ZM23 17.9167C24.0542 17.9167 24.9566 17.5658 25.7073 16.8641C26.458 16.1623 26.8334 15.3187 26.8334 14.3333C26.8334 13.3479 26.458 12.5043 25.7073 11.8026C24.9566 11.1009 24.0542 10.75 23 10.75C21.9459 10.75 21.0434 11.1009 20.2927 11.8026C19.542 12.5043 19.1667 13.3479 19.1667 14.3333C19.1667 15.3187 19.542 16.1623 20.2927 16.8641C21.0434 17.5658 21.9459 17.9167 23 17.9167Z" fill="#1D1B20"/>
</svg>
