<svg width="331" height="75" viewBox="0 0 331 75" fill="none" xmlns="http://www.w3.org/2000/svg">
<path d="M1 37.5C1 17.3416 17.3416 1 37.5 1H293.5C313.658 1 330 17.3416 330 37.5C330 57.6584 313.658 74 293.5 74H37.5C17.3416 74 1 57.6584 1 37.5Z" fill="white"/>
<path d="M37.5 1.5H293.5V0.5H37.5V1.5ZM293.5 73.5H37.5V74.5H293.5V73.5ZM37.5 73.5C17.6177 73.5 1.5 57.3823 1.5 37.5H0.5C0.5 57.9345 17.0655 74.5 37.5 74.5V73.5ZM329.5 37.5C329.5 57.3823 313.382 73.5 293.5 73.5V74.5C313.935 74.5 330.5 57.9345 330.5 37.5H329.5ZM293.5 1.5C313.382 1.5 329.5 17.6178 329.5 37.5H330.5C330.5 17.0655 313.935 0.5 293.5 0.5V1.5ZM37.5 0.5C17.0655 0.5 0.5 17.0655 0.5 37.5H1.5C1.5 17.6178 17.6178 1.5 37.5 1.5V0.5Z" fill="#D9D9D9"/>
<path d="M24.4091 36.7273L23.2045 37.0682C23.1288 36.8674 23.017 36.6723 22.8693 36.483C22.7254 36.2898 22.5284 36.1307 22.2784 36.0057C22.0284 35.8807 21.7083 35.8182 21.3182 35.8182C20.7841 35.8182 20.339 35.9413 19.983 36.1875C19.6307 36.4299 19.4545 36.7386 19.4545 37.1136C19.4545 37.447 19.5758 37.7102 19.8182 37.9034C20.0606 38.0966 20.4394 38.2576 20.9545 38.3864L22.25 38.7045C23.0303 38.8939 23.6117 39.1837 23.9943 39.5739C24.3769 39.9602 24.5682 40.4583 24.5682 41.0682C24.5682 41.5682 24.4242 42.0152 24.1364 42.4091C23.8523 42.803 23.4545 43.1136 22.9432 43.3409C22.4318 43.5682 21.8371 43.6818 21.1591 43.6818C20.2689 43.6818 19.5322 43.4886 18.9489 43.1023C18.3655 42.7159 17.9962 42.1515 17.8409 41.4091L19.1136 41.0909C19.2348 41.5606 19.464 41.9129 19.8011 42.1477C20.142 42.3826 20.5871 42.5 21.1364 42.5C21.7614 42.5 22.2576 42.3674 22.625 42.1023C22.9962 41.8333 23.1818 41.5114 23.1818 41.1364C23.1818 40.8333 23.0758 40.5795 22.8636 40.375C22.6515 40.1667 22.3258 40.0114 21.8864 39.9091L20.4318 39.5682C19.6326 39.3788 19.0455 39.0852 18.6705 38.6875C18.2992 38.286 18.1136 37.7841 18.1136 37.1818C18.1136 36.6894 18.2519 36.2538 18.5284 35.875C18.8087 35.4962 19.1894 35.1989 19.6705 34.983C20.1553 34.767 20.7045 34.6591 21.3182 34.6591C22.1818 34.6591 22.8598 34.8485 23.3523 35.2273C23.8485 35.6061 24.2008 36.1061 24.4091 36.7273ZM30.2457 43.6818C29.4048 43.6818 28.6795 43.4962 28.0696 43.125C27.4635 42.75 26.9957 42.2273 26.6662 41.5568C26.3404 40.8826 26.1776 40.0985 26.1776 39.2045C26.1776 38.3106 26.3404 37.5227 26.6662 36.8409C26.9957 36.1553 27.4541 35.6212 28.0412 35.2386C28.6321 34.8523 29.3215 34.6591 30.1094 34.6591C30.5639 34.6591 31.0128 34.7348 31.456 34.8864C31.8991 35.0379 32.3026 35.2841 32.6662 35.625C33.0298 35.9621 33.3196 36.4091 33.5355 36.9659C33.7514 37.5227 33.8594 38.2083 33.8594 39.0227V39.5909H27.1321V38.4318H32.4957C32.4957 37.9394 32.3973 37.5 32.2003 37.1136C32.0071 36.7273 31.7306 36.4223 31.3707 36.1989C31.0147 35.9754 30.5942 35.8636 30.1094 35.8636C29.5753 35.8636 29.1132 35.9962 28.723 36.2614C28.3366 36.5227 28.0393 36.8636 27.831 37.2841C27.6226 37.7045 27.5185 38.1553 27.5185 38.6364V39.4091C27.5185 40.0682 27.6321 40.6269 27.8594 41.0852C28.0904 41.5398 28.4105 41.8864 28.8196 42.125C29.2287 42.3598 29.7041 42.4773 30.2457 42.4773C30.598 42.4773 30.9162 42.428 31.2003 42.3295C31.4882 42.2273 31.7363 42.0758 31.9446 41.875C32.1529 41.6705 32.3139 41.4167 32.4276 41.1136L33.723 41.4773C33.5866 41.9167 33.3575 42.303 33.0355 42.6364C32.7135 42.9659 32.3158 43.2235 31.8423 43.4091C31.3688 43.5909 30.8366 43.6818 30.2457 43.6818ZM38.4673 43.7045C37.9143 43.7045 37.4124 43.6004 36.9616 43.392C36.5109 43.1799 36.1529 42.875 35.8878 42.4773C35.6226 42.0758 35.4901 41.5909 35.4901 41.0227C35.4901 40.5227 35.5885 40.1174 35.7855 39.8068C35.9825 39.4924 36.2457 39.2462 36.5753 39.0682C36.9048 38.8902 37.2685 38.7576 37.6662 38.6705C38.0677 38.5795 38.4711 38.5076 38.8764 38.4545C39.4067 38.3864 39.8366 38.3352 40.1662 38.3011C40.4995 38.2633 40.742 38.2008 40.8935 38.1136C41.0488 38.0265 41.1264 37.875 41.1264 37.6591V37.6136C41.1264 37.053 40.973 36.6174 40.6662 36.3068C40.3632 35.9962 39.9029 35.8409 39.2855 35.8409C38.6454 35.8409 38.1435 35.9811 37.7798 36.2614C37.4162 36.5417 37.1605 36.8409 37.0128 37.1591L35.7401 36.7045C35.9673 36.1742 36.2704 35.7614 36.6491 35.4659C37.0317 35.1667 37.4484 34.9583 37.8991 34.8409C38.3537 34.7197 38.8007 34.6591 39.2401 34.6591C39.5204 34.6591 39.8423 34.6932 40.206 34.7614C40.5734 34.8258 40.9276 34.9602 41.2685 35.1648C41.6132 35.3693 41.8991 35.678 42.1264 36.0909C42.3537 36.5038 42.4673 37.0568 42.4673 37.75V43.5H41.1264V42.3182H41.0582C40.9673 42.5076 40.8158 42.7102 40.6037 42.9261C40.3916 43.142 40.1094 43.3258 39.7571 43.4773C39.4048 43.6288 38.9749 43.7045 38.4673 43.7045ZM38.6719 42.5C39.2022 42.5 39.6491 42.3958 40.0128 42.1875C40.3802 41.9792 40.6567 41.7102 40.8423 41.3807C41.0317 41.0511 41.1264 40.7045 41.1264 40.3409V39.1136C41.0696 39.1818 40.9446 39.2443 40.7514 39.3011C40.562 39.3542 40.3423 39.4015 40.0923 39.4432C39.8461 39.4811 39.6056 39.5152 39.3707 39.5455C39.1397 39.572 38.9522 39.5947 38.8082 39.6136C38.4598 39.6591 38.134 39.733 37.831 39.8352C37.5317 39.9337 37.2893 40.0833 37.1037 40.2841C36.9219 40.4811 36.831 40.75 36.831 41.0909C36.831 41.5568 37.0033 41.9091 37.348 42.1477C37.6965 42.3826 38.1378 42.5 38.6719 42.5ZM44.9148 43.5V34.7727H46.2102V36.0909H46.3011C46.4602 35.6591 46.7481 35.3087 47.1648 35.0398C47.5814 34.7708 48.0511 34.6364 48.5739 34.6364C48.6723 34.6364 48.7955 34.6383 48.9432 34.642C49.0909 34.6458 49.2027 34.6515 49.2784 34.6591V36.0227C49.233 36.0114 49.1288 35.9943 48.9659 35.9716C48.8068 35.9451 48.6383 35.9318 48.4602 35.9318C48.036 35.9318 47.6572 36.0208 47.3239 36.1989C46.9943 36.3731 46.733 36.6155 46.5398 36.9261C46.3504 37.233 46.2557 37.5833 46.2557 37.9773V43.5H44.9148ZM54.1477 43.6818C53.3295 43.6818 52.625 43.4886 52.0341 43.1023C51.4432 42.7159 50.9886 42.1837 50.6705 41.5057C50.3523 40.8277 50.1932 40.053 50.1932 39.1818C50.1932 38.2955 50.3561 37.5133 50.6818 36.8352C51.0114 36.1534 51.4697 35.6212 52.0568 35.2386C52.6477 34.8523 53.3371 34.6591 54.125 34.6591C54.7386 34.6591 55.2917 34.7727 55.7841 35C56.2765 35.2273 56.6799 35.5455 56.9943 35.9545C57.3087 36.3636 57.5038 36.8409 57.5795 37.3864H56.2386C56.1364 36.9886 55.9091 36.6364 55.5568 36.3295C55.2083 36.0189 54.7386 35.8636 54.1477 35.8636C53.625 35.8636 53.1667 36 52.7727 36.2727C52.3826 36.5417 52.0777 36.9223 51.858 37.4148C51.642 37.9034 51.5341 38.4773 51.5341 39.1364C51.5341 39.8106 51.6402 40.3977 51.8523 40.8977C52.0682 41.3977 52.3712 41.786 52.7614 42.0625C53.1553 42.339 53.6174 42.4773 54.1477 42.4773C54.4962 42.4773 54.8125 42.4167 55.0966 42.2955C55.3807 42.1742 55.6212 42 55.8182 41.7727C56.0152 41.5455 56.1553 41.2727 56.2386 40.9545H57.5795C57.5038 41.4697 57.3163 41.9337 57.017 42.3466C56.7216 42.7557 56.3295 43.0814 55.8409 43.3239C55.3561 43.5625 54.7917 43.6818 54.1477 43.6818ZM60.8807 38.25V43.5H59.5398V31.8636H60.8807V36.1364H60.9943C61.1989 35.6856 61.5057 35.3277 61.9148 35.0625C62.3277 34.7936 62.8769 34.6591 63.5625 34.6591C64.1572 34.6591 64.678 34.7784 65.125 35.017C65.572 35.2519 65.9186 35.6136 66.1648 36.1023C66.4148 36.5871 66.5398 37.2045 66.5398 37.9545V43.5H65.1989V38.0455C65.1989 37.3523 65.0189 36.8163 64.6591 36.4375C64.303 36.0549 63.8087 35.8636 63.1761 35.8636C62.7367 35.8636 62.3428 35.9564 61.9943 36.142C61.6496 36.3277 61.3769 36.5985 61.1761 36.9545C60.9792 37.3106 60.8807 37.7424 60.8807 38.25ZM69.1747 43.5V31.8636H70.5156V36.1591H70.6293C70.7277 36.0076 70.8641 35.8144 71.0384 35.5795C71.2164 35.3409 71.4702 35.1288 71.7997 34.9432C72.133 34.7538 72.5838 34.6591 73.152 34.6591C73.8868 34.6591 74.5346 34.8428 75.0952 35.2102C75.6558 35.5777 76.0933 36.0985 76.4077 36.7727C76.7221 37.447 76.8793 38.2424 76.8793 39.1591C76.8793 40.0833 76.7221 40.8845 76.4077 41.5625C76.0933 42.2367 75.6577 42.7595 75.1009 43.1307C74.544 43.4981 73.902 43.6818 73.1747 43.6818C72.6141 43.6818 72.1652 43.589 71.8281 43.4034C71.491 43.214 71.2315 43 71.0497 42.7614C70.8679 42.5189 70.7277 42.3182 70.6293 42.1591H70.4702V43.5H69.1747ZM70.4929 39.1364C70.4929 39.7955 70.5895 40.3769 70.7827 40.8807C70.9759 41.3807 71.258 41.7727 71.6293 42.0568C72.0005 42.3371 72.455 42.4773 72.9929 42.4773C73.5535 42.4773 74.0213 42.3295 74.3963 42.0341C74.7751 41.7348 75.0592 41.3333 75.2486 40.8295C75.4418 40.322 75.5384 39.7576 75.5384 39.1364C75.5384 38.5227 75.4437 37.9697 75.2543 37.4773C75.0687 36.9811 74.7865 36.589 74.4077 36.3011C74.0327 36.0095 73.5611 35.8636 72.9929 35.8636C72.4474 35.8636 71.9891 36.0019 71.6179 36.2784C71.2467 36.5511 70.9664 36.9337 70.777 37.4261C70.5876 37.9148 70.4929 38.4848 70.4929 39.1364ZM85.9986 43.7045C85.4455 43.7045 84.9437 43.6004 84.4929 43.392C84.0421 43.1799 83.6842 42.875 83.419 42.4773C83.1539 42.0758 83.0213 41.5909 83.0213 41.0227C83.0213 40.5227 83.1198 40.1174 83.3168 39.8068C83.5137 39.4924 83.777 39.2462 84.1065 39.0682C84.4361 38.8902 84.7997 38.7576 85.1974 38.6705C85.599 38.5795 86.0024 38.5076 86.4077 38.4545C86.938 38.3864 87.3679 38.3352 87.6974 38.3011C88.0308 38.2633 88.2732 38.2008 88.4247 38.1136C88.58 38.0265 88.6577 37.875 88.6577 37.6591V37.6136C88.6577 37.053 88.5043 36.6174 88.1974 36.3068C87.8944 35.9962 87.4342 35.8409 86.8168 35.8409C86.1766 35.8409 85.6747 35.9811 85.3111 36.2614C84.9474 36.5417 84.6918 36.8409 84.544 37.1591L83.2713 36.7045C83.4986 36.1742 83.8016 35.7614 84.1804 35.4659C84.563 35.1667 84.9796 34.9583 85.4304 34.8409C85.8849 34.7197 86.3319 34.6591 86.7713 34.6591C87.0516 34.6591 87.3736 34.6932 87.7372 34.7614C88.1046 34.8258 88.4588 34.9602 88.7997 35.1648C89.1444 35.3693 89.4304 35.678 89.6577 36.0909C89.8849 36.5038 89.9986 37.0568 89.9986 37.75V43.5H88.6577V42.3182H88.5895C88.4986 42.5076 88.3471 42.7102 88.1349 42.9261C87.9228 43.142 87.6406 43.3258 87.2884 43.4773C86.9361 43.6288 86.5062 43.7045 85.9986 43.7045ZM86.2031 42.5C86.7334 42.5 87.1804 42.3958 87.544 42.1875C87.9115 41.9792 88.188 41.7102 88.3736 41.3807C88.563 41.0511 88.6577 40.7045 88.6577 40.3409V39.1136C88.6009 39.1818 88.4759 39.2443 88.2827 39.3011C88.0933 39.3542 87.8736 39.4015 87.6236 39.4432C87.3774 39.4811 87.1368 39.5152 86.902 39.5455C86.6709 39.572 86.4834 39.5947 86.3395 39.6136C85.991 39.6591 85.6652 39.733 85.3622 39.8352C85.063 39.9337 84.8205 40.0833 84.6349 40.2841C84.4531 40.4811 84.3622 40.75 84.3622 41.0909C84.3622 41.5568 84.5346 41.9091 84.8793 42.1477C85.2277 42.3826 85.669 42.5 86.2031 42.5ZM92.446 43.5V34.7727H93.7415V36.0909H93.8324C93.9915 35.6591 94.2794 35.3087 94.696 35.0398C95.1127 34.7708 95.5824 34.6364 96.1051 34.6364C96.2036 34.6364 96.3267 34.6383 96.4744 34.642C96.6222 34.6458 96.7339 34.6515 96.8097 34.6591V36.0227C96.7642 36.0114 96.66 35.9943 96.4972 35.9716C96.3381 35.9451 96.1695 35.9318 95.9915 35.9318C95.5672 35.9318 95.1884 36.0208 94.8551 36.1989C94.5256 36.3731 94.2642 36.6155 94.071 36.9261C93.8816 37.233 93.7869 37.5833 93.7869 37.9773V43.5H92.446ZM102.741 34.7727V35.9091H98.2188V34.7727H102.741ZM99.5369 32.6818H100.878V41C100.878 41.3788 100.933 41.6629 101.043 41.8523C101.156 42.0379 101.3 42.1629 101.474 42.2273C101.652 42.2879 101.84 42.3182 102.037 42.3182C102.185 42.3182 102.306 42.3106 102.401 42.2955C102.495 42.2765 102.571 42.2614 102.628 42.25L102.901 43.4545C102.81 43.4886 102.683 43.5227 102.52 43.5568C102.357 43.5947 102.151 43.6136 101.901 43.6136C101.522 43.6136 101.151 43.5322 100.787 43.3693C100.427 43.2064 100.128 42.9583 99.8892 42.625C99.6544 42.2917 99.5369 41.8712 99.5369 41.3636V32.6818ZM104.759 43.5V34.7727H106.099V43.5H104.759ZM105.44 33.3182C105.179 33.3182 104.954 33.2292 104.764 33.0511C104.579 32.8731 104.486 32.6591 104.486 32.4091C104.486 32.1591 104.579 31.9451 104.764 31.767C104.954 31.589 105.179 31.5 105.44 31.5C105.702 31.5 105.925 31.589 106.111 31.767C106.3 31.9451 106.395 32.1591 106.395 32.4091C106.395 32.6591 106.3 32.8731 106.111 33.0511C105.925 33.2292 105.702 33.3182 105.44 33.3182ZM112.101 43.6818C111.283 43.6818 110.578 43.4886 109.987 43.1023C109.396 42.7159 108.942 42.1837 108.624 41.5057C108.305 40.8277 108.146 40.053 108.146 39.1818C108.146 38.2955 108.309 37.5133 108.635 36.8352C108.964 36.1534 109.423 35.6212 110.01 35.2386C110.601 34.8523 111.29 34.6591 112.078 34.6591C112.692 34.6591 113.245 34.7727 113.737 35C114.23 35.2273 114.633 35.5455 114.947 35.9545C115.262 36.3636 115.457 36.8409 115.533 37.3864H114.192C114.089 36.9886 113.862 36.6364 113.51 36.3295C113.161 36.0189 112.692 35.8636 112.101 35.8636C111.578 35.8636 111.12 36 110.726 36.2727C110.336 36.5417 110.031 36.9223 109.811 37.4148C109.595 37.9034 109.487 38.4773 109.487 39.1364C109.487 39.8106 109.593 40.3977 109.805 40.8977C110.021 41.3977 110.324 41.786 110.714 42.0625C111.108 42.339 111.571 42.4773 112.101 42.4773C112.449 42.4773 112.766 42.4167 113.05 42.2955C113.334 42.1742 113.574 42 113.771 41.7727C113.968 41.5455 114.108 41.2727 114.192 40.9545H115.533C115.457 41.4697 115.269 41.9337 114.97 42.3466C114.675 42.7557 114.283 43.0814 113.794 43.3239C113.309 43.5625 112.745 43.6818 112.101 43.6818ZM118.834 31.8636V43.5H117.493V31.8636H118.834ZM124.949 43.6818C124.108 43.6818 123.383 43.4962 122.773 43.125C122.167 42.75 121.699 42.2273 121.369 41.5568C121.044 40.8826 120.881 40.0985 120.881 39.2045C120.881 38.3106 121.044 37.5227 121.369 36.8409C121.699 36.1553 122.157 35.6212 122.744 35.2386C123.335 34.8523 124.025 34.6591 124.812 34.6591C125.267 34.6591 125.716 34.7348 126.159 34.8864C126.602 35.0379 127.006 35.2841 127.369 35.625C127.733 35.9621 128.023 36.4091 128.239 36.9659C128.455 37.5227 128.562 38.2083 128.562 39.0227V39.5909H121.835V38.4318H127.199C127.199 37.9394 127.1 37.5 126.903 37.1136C126.71 36.7273 126.434 36.4223 126.074 36.1989C125.718 35.9754 125.297 35.8636 124.812 35.8636C124.278 35.8636 123.816 35.9962 123.426 36.2614C123.04 36.5227 122.742 36.8636 122.534 37.2841C122.326 37.7045 122.222 38.1553 122.222 38.6364V39.4091C122.222 40.0682 122.335 40.6269 122.562 41.0852C122.794 41.5398 123.114 41.8864 123.523 42.125C123.932 42.3598 124.407 42.4773 124.949 42.4773C125.301 42.4773 125.619 42.428 125.903 42.3295C126.191 42.2273 126.439 42.0758 126.648 41.875C126.856 41.6705 127.017 41.4167 127.131 41.1136L128.426 41.4773C128.29 41.9167 128.061 42.303 127.739 42.6364C127.417 42.9659 127.019 43.2235 126.545 43.4091C126.072 43.5909 125.54 43.6818 124.949 43.6818Z" fill="#B3B3B3"/>
<path d="M312 43.5L309.1 40.6M310.667 36.8333C310.667 39.7789 308.279 42.1667 305.333 42.1667C302.388 42.1667 300 39.7789 300 36.8333C300 33.8878 302.388 31.5 305.333 31.5C308.279 31.5 310.667 33.8878 310.667 36.8333Z" stroke="#1E1E1E" stroke-width="1.6" stroke-linecap="round" stroke-linejoin="round"/>
</svg>
