<svg width="36" height="37" viewBox="0 0 36 37" fill="none" xmlns="http://www.w3.org/2000/svg">
<path d="M13.5 25.4375C12.45 25.4375 11.5625 25.0649 10.8375 24.3198C10.1125 23.5746 9.75 22.6625 9.75 21.5833C9.75 20.5041 10.1125 19.592 10.8375 18.8469C11.5625 18.1017 12.45 17.7291 13.5 17.7291C14.55 17.7291 15.4375 18.1017 16.1625 18.8469C16.8875 19.592 17.25 20.5041 17.25 21.5833C17.25 22.6625 16.8875 23.5746 16.1625 24.3198C15.4375 25.0649 14.55 25.4375 13.5 25.4375ZM7.5 33.9166C6.675 33.9166 5.96875 33.6147 5.38125 33.0109C4.79375 32.4071 4.5 31.6812 4.5 30.8333V9.24998C4.5 8.40206 4.79375 7.6762 5.38125 7.07238C5.96875 6.46856 6.675 6.16665 7.5 6.16665H9V3.08331H12V6.16665H24V3.08331H27V6.16665H28.5C29.325 6.16665 30.0313 6.46856 30.6188 7.07238C31.2063 7.6762 31.5 8.40206 31.5 9.24998V30.8333C31.5 31.6812 31.2063 32.4071 30.6188 33.0109C30.0313 33.6147 29.325 33.9166 28.5 33.9166H7.5ZM7.5 30.8333H28.5V15.4166H7.5V30.8333Z" fill="#1D1B20"/>
</svg>
